<svg width="124" height="124" viewBox="0 0 124 124" fill="none" xmlns="http://www.w3.org/2000/svg">
<rect x="0.5" y="0.5" width="123" height="123" rx="61.5" fill="white"/>
<rect x="0.5" y="0.5" width="123" height="123" rx="61.5" stroke="#CBCBCB"/>
<path fill-rule="evenodd" clip-rule="evenodd" d="M42.0083 27.2433C42.4803 26.1783 44.139 26.1365 44.6765 27.1761L49.3654 36.244C49.4448 36.3977 49.6162 36.496 49.8047 36.496H60.0801H63.9283H73.2657C73.4584 36.496 73.6328 36.3933 73.7098 36.2344L78.0268 27.329C78.5491 26.2516 80.2634 26.2929 80.7208 27.3938L88.1744 45.332L88.1807 45.3473L88.1858 45.3629C88.8928 47.5506 89.8103 52.355 89.2557 57.5648L99.2333 55.8748C99.4963 55.8302 99.7496 55.9859 99.7991 56.2225C99.8486 56.459 99.6756 56.6869 99.4126 56.7315L89.1446 58.4707C88.9487 59.8787 88.6399 61.3066 88.1858 62.7118C88.1176 62.9227 88.0427 63.1304 87.9612 63.3352L99.5307 63.6628C99.7982 63.6704 100.008 63.8716 99.9997 64.1122C99.9913 64.3528 99.7677 64.5417 99.5002 64.5342L87.5724 64.1964C86.1348 67.0351 83.4464 69.2397 80.586 70.8696C77.2393 72.7766 73.5935 73.9341 71.2445 74.4186L71.0279 73.5689C73.2858 73.1032 76.8264 71.9799 80.0674 70.1332C82.7296 68.6162 85.1469 66.6361 86.5146 64.1664L82.1919 64.044C81.9245 64.0364 81.7145 63.8352 81.7229 63.5946C81.7313 63.354 81.955 63.165 82.2224 63.1726L86.9387 63.3062C87.0574 63.0325 87.1632 62.7532 87.2552 62.4684C87.6646 61.2018 87.952 59.9145 88.1429 58.6404L82.3948 59.6141C82.1318 59.6586 81.8785 59.5029 81.829 59.2663C81.7795 59.0298 81.9525 58.8019 82.2155 58.7573L88.2632 57.7329C88.8589 52.5791 87.9542 47.7786 87.2603 45.6219L79.8131 27.6991C79.6606 27.3321 79.0892 27.3183 78.9151 27.6775L74.5981 36.5828C74.367 37.0596 73.8438 37.3678 73.2657 37.3678H63.9283H60.0801H49.8047C49.2393 37.3678 48.7252 37.0728 48.4867 36.6116L43.7979 27.5438C43.6187 27.1972 43.0658 27.2112 42.9084 27.5662L34.9023 45.63C34.1598 47.7939 33.1911 52.6207 33.8417 57.7935L41.7845 59.1389C42.0475 59.1834 42.2205 59.4113 42.171 59.6479C42.1215 59.8845 41.8682 60.0402 41.6052 59.9956L33.9727 58.7028C34.1761 59.9541 34.4793 61.2175 34.9079 62.461C35.0586 62.898 35.2439 63.322 35.4604 63.7331L41.7775 63.5542C42.045 63.5466 42.2687 63.7355 42.2771 63.9761C42.2855 64.2167 42.0755 64.4179 41.808 64.4255L35.9682 64.5909C37.4619 66.858 39.9025 68.6967 42.5792 70.1266C46.0407 71.9757 49.8227 73.1008 52.2368 73.5676L52.0332 74.4199C49.5334 73.9365 45.6498 72.7808 42.0845 70.8762C39.1899 69.3299 36.4556 67.2632 34.8743 64.6219L24.4998 64.9157C24.2323 64.9233 24.0087 64.7344 24.0002 64.4938C23.9918 64.2532 24.2018 64.052 24.4693 64.0444L34.4117 63.7628C34.249 63.4237 34.1053 63.0759 33.9823 62.7192C33.5041 61.332 33.1769 59.9228 32.9674 58.5325L24.5874 57.113C24.3244 57.0685 24.1514 56.8406 24.2009 56.604C24.2504 56.3674 24.5037 56.2118 24.7667 56.2563L32.8466 57.6249C32.2407 52.3886 33.2247 47.5532 33.9823 45.3555L33.988 45.3391L33.995 45.3232L42.0083 27.2433ZM82.9162 49.3699C83.1326 50.1603 82.3796 50.8295 81.4747 50.8295H81.2135C80.4529 50.8295 79.8605 50.2544 79.5694 49.6223C79.3932 49.2395 79.1349 48.8918 78.8093 48.5988C78.4836 48.3059 78.0971 48.0735 77.6716 47.915C77.2461 47.7565 76.7901 47.6749 76.3296 47.6749C75.8691 47.6749 75.4131 47.7565 74.9877 47.915C74.5622 48.0735 74.1756 48.3059 73.85 48.5988C73.5243 48.8918 73.266 49.2395 73.0898 49.6223C72.7988 50.2544 72.2063 50.8295 71.4458 50.8295H71.1845C70.2797 50.8295 69.5266 50.1603 69.7431 49.3699C69.8247 49.0719 69.9313 48.7791 70.0625 48.4942C70.4034 47.7539 70.9031 47.0811 71.533 46.5145C72.1629 45.9478 72.9107 45.4983 73.7337 45.1916C74.5567 44.885 75.4388 44.7271 76.3296 44.7271C77.2204 44.7271 78.1025 44.885 78.9255 45.1916C79.7486 45.4983 80.4964 45.9478 81.1263 46.5145C81.7562 47.0811 82.2558 47.7539 82.5967 48.4942C82.7279 48.7791 82.8346 49.0719 82.9162 49.3699ZM52.8751 50.2417C53.0916 51.0321 52.3385 51.7013 51.4337 51.7013H51.1724C50.4119 51.7013 49.8194 51.1262 49.5284 50.4941C49.3521 50.1113 49.0938 49.7635 48.7682 49.4706C48.4426 49.1777 48.056 48.9453 47.6305 48.7868C47.2051 48.6282 46.7491 48.5466 46.2886 48.5466C45.8281 48.5466 45.3721 48.6282 44.9466 48.7868C44.5211 48.9453 44.1346 49.1777 43.8089 49.4706C43.4833 49.7635 43.225 50.1113 43.0488 50.4941C42.7577 51.1262 42.1653 51.7013 41.4047 51.7013H41.1435C40.2386 51.7013 39.4856 51.0321 39.702 50.2417C39.7836 49.9437 39.8903 49.6509 40.0215 49.366C40.3624 48.6256 40.862 47.9529 41.4919 47.3862C42.1218 46.8196 42.8696 46.3701 43.6926 46.0634C44.5157 45.7567 45.3977 45.5989 46.2886 45.5989C47.1794 45.5989 48.0615 45.7567 48.8845 46.0634C49.7075 46.3701 50.4553 46.8196 51.0852 47.3862C51.7151 47.9529 52.2148 48.6256 52.5557 49.366C52.6868 49.6509 52.7935 49.9437 52.8751 50.2417ZM62.7957 67.6111C62.5159 68.0472 62.0785 68.3197 61.6018 68.4286V72.8418H60.6327V68.4286C60.156 68.3197 59.7187 68.0472 59.4388 67.6111L58.1799 65.6496C57.4339 64.4873 58.3664 63.0343 59.8584 63.0343H62.3761C63.8681 63.0343 64.8006 64.4873 64.0546 65.6496L62.7957 67.6111Z" fill="#5D4FC4"/>
<path d="M59.5291 87.6477H57.7564C57.6882 87.2689 57.5613 86.9356 57.3757 86.6477C57.1901 86.3598 56.9628 86.1155 56.6939 85.9148C56.425 85.714 56.1238 85.5625 55.7905 85.4602C55.4609 85.358 55.1106 85.3068 54.7393 85.3068C54.0689 85.3068 53.4685 85.4754 52.9382 85.8125C52.4117 86.1496 51.995 86.6439 51.6882 87.2955C51.3852 87.947 51.2337 88.7424 51.2337 89.6818C51.2337 90.6288 51.3852 91.428 51.6882 92.0795C51.995 92.7311 52.4136 93.2235 52.9439 93.5568C53.4742 93.8902 54.0708 94.0568 54.7337 94.0568C55.1011 94.0568 55.4496 94.0076 55.7791 93.9091C56.1125 93.8068 56.4136 93.6572 56.6825 93.4602C56.9515 93.2633 57.1787 93.0227 57.3643 92.7386C57.5537 92.4508 57.6844 92.1212 57.7564 91.75L59.5291 91.7557C59.4344 92.3277 59.2507 92.8542 58.978 93.3352C58.709 93.8125 58.3625 94.2254 57.9382 94.5739C57.5178 94.9186 57.0367 95.1856 56.495 95.375C55.9534 95.5644 55.3625 95.6591 54.7223 95.6591C53.7147 95.6591 52.817 95.4205 52.0291 94.9432C51.2412 94.4621 50.62 93.7746 50.1655 92.8807C49.7147 91.9867 49.4893 90.9205 49.4893 89.6818C49.4893 88.4394 49.7166 87.3731 50.1712 86.483C50.6257 85.589 51.2469 84.9034 52.0348 84.4261C52.8227 83.9451 53.7185 83.7045 54.7223 83.7045C55.3397 83.7045 55.9155 83.7936 56.4496 83.9716C56.9875 84.1458 57.4704 84.4034 57.8984 84.7443C58.3265 85.0814 58.6806 85.4943 58.9609 85.983C59.2412 86.4678 59.4306 87.0227 59.5291 87.6477ZM64.0334 95.6932C63.4804 95.6932 62.9804 95.5909 62.5334 95.3864C62.0864 95.178 61.7322 94.8769 61.4709 94.483C61.2133 94.089 61.0845 93.6061 61.0845 93.0341C61.0845 92.5417 61.1792 92.1364 61.3686 91.8182C61.558 91.5 61.8137 91.2481 62.1357 91.0625C62.4576 90.8769 62.8175 90.7367 63.2152 90.642C63.6129 90.5473 64.0182 90.4754 64.4311 90.4261C64.9538 90.3655 65.3781 90.3163 65.7038 90.2784C66.0296 90.2367 66.2663 90.1705 66.4141 90.0795C66.5618 89.9886 66.6357 89.8409 66.6357 89.6364V89.5966C66.6357 89.1004 66.4955 88.7159 66.2152 88.4432C65.9387 88.1705 65.5258 88.0341 64.9766 88.0341C64.4046 88.0341 63.9538 88.161 63.6243 88.4148C63.2985 88.6648 63.0732 88.9432 62.9482 89.25L61.3516 88.8864C61.541 88.3561 61.8175 87.928 62.1811 87.6023C62.5485 87.2727 62.9709 87.0341 63.4482 86.8864C63.9254 86.7348 64.4273 86.6591 64.9538 86.6591C65.3023 86.6591 65.6716 86.7008 66.0618 86.7841C66.4557 86.8636 66.8232 87.0114 67.1641 87.2273C67.5088 87.4432 67.791 87.7519 68.0107 88.1534C68.2304 88.5511 68.3402 89.0682 68.3402 89.7045V95.5H66.6811V94.3068H66.6129C66.5031 94.5265 66.3383 94.7424 66.1186 94.9545C65.8989 95.1667 65.6167 95.3428 65.272 95.483C64.9273 95.6231 64.5144 95.6932 64.0334 95.6932ZM64.4027 94.3295C64.8724 94.3295 65.2739 94.2367 65.6072 94.0511C65.9444 93.8655 66.2 93.6231 66.3743 93.3239C66.5523 93.0208 66.6413 92.697 66.6413 92.3523V91.2273C66.5807 91.2879 66.4633 91.3447 66.2891 91.3977C66.1186 91.447 65.9235 91.4905 65.7038 91.5284C65.4841 91.5625 65.2701 91.5947 65.0618 91.625C64.8535 91.6515 64.6792 91.6742 64.5391 91.6932C64.2095 91.7348 63.9084 91.8049 63.6357 91.9034C63.3667 92.0019 63.1508 92.1439 62.9879 92.3295C62.8288 92.5114 62.7493 92.7538 62.7493 93.0568C62.7493 93.4773 62.9046 93.7955 63.2152 94.0114C63.5258 94.2235 63.9216 94.3295 64.4027 94.3295ZM74.6768 86.7727V88.1364H69.9098V86.7727H74.6768ZM71.1882 84.6818H72.8871V92.9375C72.8871 93.267 72.9363 93.5152 73.0348 93.6818C73.1333 93.8447 73.2602 93.9564 73.4155 94.017C73.5746 94.0739 73.7469 94.1023 73.9325 94.1023C74.0689 94.1023 74.1882 94.0928 74.2905 94.0739C74.3928 94.0549 74.4723 94.0398 74.5291 94.0284L74.8359 95.4318C74.7375 95.4697 74.5973 95.5076 74.4155 95.5455C74.2337 95.5871 74.0064 95.6098 73.7337 95.6136C73.2867 95.6212 72.87 95.5417 72.4837 95.375C72.0973 95.2083 71.7848 94.9508 71.5462 94.6023C71.3075 94.2538 71.1882 93.8163 71.1882 93.2898V84.6818Z" fill="#5D4FC4"/>
</svg>
