<svg width="124" height="124" viewBox="0 0 124 124" fill="none" xmlns="http://www.w3.org/2000/svg">
<rect x="0.5" y="0.5" width="123" height="123" rx="61.5" fill="white"/>
<rect x="0.5" y="0.5" width="123" height="123" rx="61.5" stroke="#CBCBCB"/>
<mask id="path-2-inside-1_6566_19091" fill="white">
<path fill-rule="evenodd" clip-rule="evenodd" d="M41.3561 51.7944L41.3507 51.8333L41.1427 53.3231V54.3282C41.1427 55.0574 40.9939 55.7799 40.7041 56.4657L40.2822 59.4887C39.2243 67.068 48.0808 72.9811 56.8462 70.5479C58.0463 70.2147 59.2856 70.0125 60.5331 69.9412V60.9106C60.2738 60.8432 60.0225 60.748 59.7859 60.625L58.3686 59.8879C55.6468 58.4725 56.8624 55.0014 60.0798 55.0014H62.9144C66.1319 55.0014 67.3475 58.4725 64.6257 59.8879L63.2084 60.625C62.9718 60.748 62.7207 60.8432 62.4615 60.9105V69.9352C63.7564 70.0009 65.0432 70.2076 66.2876 70.5551C75.0254 72.9948 83.8918 67.1465 82.923 59.5801L82.2841 54.5905L82.2781 54.5443V54.4978V45.3132L81.6354 38.3421L81.8681 38.3275L81.8651 38.3051L81.6333 38.3133C81.2685 31.3626 74.3315 25.8824 65.8978 25.8824H58.6063C51.7175 25.8824 45.7739 29.2937 43.1589 34.2004L42.6197 35.6831C42.4633 36.1131 42.3541 36.5539 42.2933 37.0001L41.6792 41.5097L41.3573 51.7552L41.3561 51.7944ZM29.8899 60.1935C33.2261 61.502 37.1108 60.7035 39.3494 58.4572L39.2196 59.3878C38.0721 67.6094 47.6791 74.0237 57.1874 71.3842C60.0282 70.5955 63.1055 70.5982 65.9446 71.3909C75.4207 74.0367 85.0376 67.6946 83.9867 59.4874L83.7235 57.4317C85.6513 60.5412 90.2482 61.8498 94.1101 60.3352L94.9702 59.9978C99.528 58.2103 101.338 53.6359 98.9359 49.9744L86.7081 31.3342C85.5604 29.5847 82.6212 29.3674 81.1148 30.9208C80.8135 31.2315 80.6011 31.5868 80.4838 31.9611C77.5734 27.7903 72.1166 25 65.8978 25H58.6063C52.2813 25 46.7055 27.7043 43.5105 31.8016C43.3921 31.4338 43.1817 31.0849 42.8852 30.7792C41.3788 29.2258 38.4396 29.443 37.2919 31.1926L25.0641 49.8328C22.6622 53.4943 24.472 58.0686 29.0298 59.8562L29.8899 60.1935ZM39.4574 56.6612C39.5297 56.5308 39.5958 56.3983 39.6555 56.2641L40.0731 53.2724L40.0731 49.1242V49.0992L40.0748 49.0742L40.5855 41.6492L40.5872 41.6249L40.5905 41.6007L40.6112 41.4489L40.6751 39.4137C40.7367 37.4535 41.2584 35.5904 42.1536 33.8941L42.4568 33.0603C42.6739 32.4635 42.5218 31.8169 42.05 31.3304C41.0219 30.2702 39.0159 30.4185 38.2326 31.6126L26.0048 50.2528C23.8945 53.4697 25.4846 57.4887 29.4891 59.0593L30.3492 59.3966C33.7786 60.7416 37.8788 59.5102 39.4574 56.6612ZM83.9252 49.2158L83.9269 49.2408V49.2658L83.9269 54.4699C83.9269 55.275 84.1369 56.0706 84.5426 56.8029C86.1212 59.6519 90.2214 60.8833 93.6508 59.5383L94.5109 59.2009C98.5154 57.6304 100.105 53.6114 97.9952 50.3944L85.7674 31.7542C84.9841 30.5601 82.9781 30.4119 81.95 31.472C81.4782 31.9585 81.3261 32.6052 81.5432 33.2019L82.4048 35.5712C82.5796 36.0519 82.7017 36.5445 82.7696 37.0432L83.4095 41.7424L83.4128 41.7666L83.4145 41.7909L83.9252 49.2158ZM76.0104 42.4697C76.1302 43.0498 75.5404 43.5303 74.827 43.5303C74.1137 43.5303 73.5576 43.0392 73.3249 42.4829C73.1859 42.1508 72.9823 41.8491 72.7255 41.5949C72.4688 41.3408 72.164 41.1392 71.8286 41.0017C71.4931 40.8641 71.1336 40.7933 70.7705 40.7933C70.4075 40.7933 70.0479 40.8641 69.7125 41.0017C69.3771 41.1392 69.0723 41.3408 68.8155 41.5949C68.5588 41.8491 68.3552 42.1508 68.2162 42.4829C67.9834 43.0392 67.4274 43.5303 66.714 43.5303C66.0006 43.5303 65.4109 43.0498 65.5307 42.4697C65.5988 42.14 65.6987 41.8166 65.8294 41.5042C66.0982 40.8619 66.4922 40.2782 66.9888 39.7866C67.4854 39.295 68.075 38.905 68.7239 38.6389C69.3727 38.3728 70.0682 38.2359 70.7705 38.2359C71.4729 38.2359 72.1683 38.3728 72.8172 38.6389C73.4661 38.905 74.0557 39.295 74.5523 39.7866C75.0489 40.2782 75.4429 40.8619 75.7117 41.5042C75.8424 41.8166 75.9422 42.14 76.0104 42.4697ZM56.6431 43.5303C57.3565 43.5303 57.9463 43.0498 57.8265 42.4697C57.7584 42.14 57.6585 41.8166 57.5278 41.5042C57.259 40.8619 56.865 40.2782 56.3684 39.7866C55.8718 39.295 55.2822 38.905 54.6333 38.6389C53.9844 38.3728 53.289 38.2359 52.5866 38.2359C51.8843 38.2359 51.1888 38.3728 50.54 38.6389C49.8911 38.905 49.3015 39.295 48.8049 39.7866C48.3083 40.2782 47.9143 40.8619 47.6455 41.5042C47.5148 41.8166 47.4149 42.14 47.3468 42.4697C47.227 43.0498 47.8167 43.5303 48.5301 43.5303C49.2435 43.5303 49.7995 43.0392 50.0323 42.4829C50.1713 42.1508 50.3749 41.8491 50.6316 41.5949C50.8884 41.3408 51.1932 41.1392 51.5286 41.0017C51.864 40.8641 52.2236 40.7933 52.5866 40.7933C52.9497 40.7933 53.3092 40.8641 53.6447 41.0017C53.9801 41.1392 54.2849 41.3408 54.5416 41.5949C54.7984 41.8491 55.002 42.1508 55.141 42.4829C55.3737 43.0392 55.9298 43.5303 56.6431 43.5303Z"/>
</mask>
<path fill-rule="evenodd" clip-rule="evenodd" d="M41.3561 51.7944L41.3507 51.8333L41.1427 53.3231V54.3282C41.1427 55.0574 40.9939 55.7799 40.7041 56.4657L40.2822 59.4887C39.2243 67.068 48.0808 72.9811 56.8462 70.5479C58.0463 70.2147 59.2856 70.0125 60.5331 69.9412V60.9106C60.2738 60.8432 60.0225 60.748 59.7859 60.625L58.3686 59.8879C55.6468 58.4725 56.8624 55.0014 60.0798 55.0014H62.9144C66.1319 55.0014 67.3475 58.4725 64.6257 59.8879L63.2084 60.625C62.9718 60.748 62.7207 60.8432 62.4615 60.9105V69.9352C63.7564 70.0009 65.0432 70.2076 66.2876 70.5551C75.0254 72.9948 83.8918 67.1465 82.923 59.5801L82.2841 54.5905L82.2781 54.5443V54.4978V45.3132L81.6354 38.3421L81.8681 38.3275L81.8651 38.3051L81.6333 38.3133C81.2685 31.3626 74.3315 25.8824 65.8978 25.8824H58.6063C51.7175 25.8824 45.7739 29.2937 43.1589 34.2004L42.6197 35.6831C42.4633 36.1131 42.3541 36.5539 42.2933 37.0001L41.6792 41.5097L41.3573 51.7552L41.3561 51.7944ZM29.8899 60.1935C33.2261 61.502 37.1108 60.7035 39.3494 58.4572L39.2196 59.3878C38.0721 67.6094 47.6791 74.0237 57.1874 71.3842C60.0282 70.5955 63.1055 70.5982 65.9446 71.3909C75.4207 74.0367 85.0376 67.6946 83.9867 59.4874L83.7235 57.4317C85.6513 60.5412 90.2482 61.8498 94.1101 60.3352L94.9702 59.9978C99.528 58.2103 101.338 53.6359 98.9359 49.9744L86.7081 31.3342C85.5604 29.5847 82.6212 29.3674 81.1148 30.9208C80.8135 31.2315 80.6011 31.5868 80.4838 31.9611C77.5734 27.7903 72.1166 25 65.8978 25H58.6063C52.2813 25 46.7055 27.7043 43.5105 31.8016C43.3921 31.4338 43.1817 31.0849 42.8852 30.7792C41.3788 29.2258 38.4396 29.443 37.2919 31.1926L25.0641 49.8328C22.6622 53.4943 24.472 58.0686 29.0298 59.8562L29.8899 60.1935ZM39.4574 56.6612C39.5297 56.5308 39.5958 56.3983 39.6555 56.2641L40.0731 53.2724L40.0731 49.1242V49.0992L40.0748 49.0742L40.5855 41.6492L40.5872 41.6249L40.5905 41.6007L40.6112 41.4489L40.6751 39.4137C40.7367 37.4535 41.2584 35.5904 42.1536 33.8941L42.4568 33.0603C42.6739 32.4635 42.5218 31.8169 42.05 31.3304C41.0219 30.2702 39.0159 30.4185 38.2326 31.6126L26.0048 50.2528C23.8945 53.4697 25.4846 57.4887 29.4891 59.0593L30.3492 59.3966C33.7786 60.7416 37.8788 59.5102 39.4574 56.6612ZM83.9252 49.2158L83.9269 49.2408V49.2658L83.9269 54.4699C83.9269 55.275 84.1369 56.0706 84.5426 56.8029C86.1212 59.6519 90.2214 60.8833 93.6508 59.5383L94.5109 59.2009C98.5154 57.6304 100.105 53.6114 97.9952 50.3944L85.7674 31.7542C84.9841 30.5601 82.9781 30.4119 81.95 31.472C81.4782 31.9585 81.3261 32.6052 81.5432 33.2019L82.4048 35.5712C82.5796 36.0519 82.7017 36.5445 82.7696 37.0432L83.4095 41.7424L83.4128 41.7666L83.4145 41.7909L83.9252 49.2158ZM76.0104 42.4697C76.1302 43.0498 75.5404 43.5303 74.827 43.5303C74.1137 43.5303 73.5576 43.0392 73.3249 42.4829C73.1859 42.1508 72.9823 41.8491 72.7255 41.5949C72.4688 41.3408 72.164 41.1392 71.8286 41.0017C71.4931 40.8641 71.1336 40.7933 70.7705 40.7933C70.4075 40.7933 70.0479 40.8641 69.7125 41.0017C69.3771 41.1392 69.0723 41.3408 68.8155 41.5949C68.5588 41.8491 68.3552 42.1508 68.2162 42.4829C67.9834 43.0392 67.4274 43.5303 66.714 43.5303C66.0006 43.5303 65.4109 43.0498 65.5307 42.4697C65.5988 42.14 65.6987 41.8166 65.8294 41.5042C66.0982 40.8619 66.4922 40.2782 66.9888 39.7866C67.4854 39.295 68.075 38.905 68.7239 38.6389C69.3727 38.3728 70.0682 38.2359 70.7705 38.2359C71.4729 38.2359 72.1683 38.3728 72.8172 38.6389C73.4661 38.905 74.0557 39.295 74.5523 39.7866C75.0489 40.2782 75.4429 40.8619 75.7117 41.5042C75.8424 41.8166 75.9422 42.14 76.0104 42.4697ZM56.6431 43.5303C57.3565 43.5303 57.9463 43.0498 57.8265 42.4697C57.7584 42.14 57.6585 41.8166 57.5278 41.5042C57.259 40.8619 56.865 40.2782 56.3684 39.7866C55.8718 39.295 55.2822 38.905 54.6333 38.6389C53.9844 38.3728 53.289 38.2359 52.5866 38.2359C51.8843 38.2359 51.1888 38.3728 50.54 38.6389C49.8911 38.905 49.3015 39.295 48.8049 39.7866C48.3083 40.2782 47.9143 40.8619 47.6455 41.5042C47.5148 41.8166 47.4149 42.14 47.3468 42.4697C47.227 43.0498 47.8167 43.5303 48.5301 43.5303C49.2435 43.5303 49.7995 43.0392 50.0323 42.4829C50.1713 42.1508 50.3749 41.8491 50.6316 41.5949C50.8884 41.3408 51.1932 41.1392 51.5286 41.0017C51.864 40.8641 52.2236 40.7933 52.5866 40.7933C52.9497 40.7933 53.3092 40.8641 53.6447 41.0017C53.9801 41.1392 54.2849 41.3408 54.5416 41.5949C54.7984 41.8491 55.002 42.1508 55.141 42.4829C55.3737 43.0392 55.9298 43.5303 56.6431 43.5303Z" fill="#5D4FC4" stroke="#5D4FC4" stroke-width="2" mask="url(#path-2-inside-1_6566_19091)"/>
<path d="M51.5142 95H47.7472V83.3636H51.6335C52.7737 83.3636 53.7528 83.5966 54.571 84.0625C55.3892 84.5246 56.0161 85.1894 56.4517 86.0568C56.8911 86.9205 57.1108 87.9564 57.1108 89.1648C57.1108 90.3769 56.8892 91.4186 56.446 92.2898C56.0066 93.161 55.3703 93.8314 54.5369 94.3011C53.7036 94.767 52.696 95 51.5142 95ZM49.5028 93.4659H51.4176C52.304 93.4659 53.0407 93.2992 53.6278 92.9659C54.215 92.6288 54.6544 92.142 54.946 91.5057C55.2377 90.8655 55.3835 90.0852 55.3835 89.1648C55.3835 88.2519 55.2377 87.4773 54.946 86.8409C54.6581 86.2045 54.2282 85.7216 53.6562 85.392C53.0843 85.0625 52.3741 84.8977 51.5256 84.8977H49.5028V93.4659ZM62.8338 95.1761C62.0156 95.1761 61.3016 94.9886 60.6918 94.6136C60.0819 94.2386 59.6084 93.714 59.2713 93.0398C58.9342 92.3655 58.7656 91.5777 58.7656 90.6761C58.7656 89.7708 58.9342 88.9792 59.2713 88.3011C59.6084 87.6231 60.0819 87.0966 60.6918 86.7216C61.3016 86.3466 62.0156 86.1591 62.8338 86.1591C63.652 86.1591 64.366 86.3466 64.9759 86.7216C65.5857 87.0966 66.0592 87.6231 66.3963 88.3011C66.7334 88.9792 66.902 89.7708 66.902 90.6761C66.902 91.5777 66.7334 92.3655 66.3963 93.0398C66.0592 93.714 65.5857 94.2386 64.9759 94.6136C64.366 94.9886 63.652 95.1761 62.8338 95.1761ZM62.8395 93.75C63.3698 93.75 63.8092 93.6098 64.1577 93.3295C64.5062 93.0492 64.7637 92.6761 64.9304 92.2102C65.1009 91.7443 65.1861 91.2311 65.1861 90.6705C65.1861 90.1136 65.1009 89.6023 64.9304 89.1364C64.7637 88.6667 64.5062 88.2898 64.1577 88.0057C63.8092 87.7216 63.3698 87.5795 62.8395 87.5795C62.3054 87.5795 61.8622 87.7216 61.5099 88.0057C61.1615 88.2898 60.902 88.6667 60.7315 89.1364C60.5649 89.6023 60.4815 90.1136 60.4815 90.6705C60.4815 91.2311 60.5649 91.7443 60.7315 92.2102C60.902 92.6761 61.1615 93.0492 61.5099 93.3295C61.8622 93.6098 62.3054 93.75 62.8395 93.75ZM72.4574 98.4545C71.7642 98.4545 71.1676 98.3636 70.6676 98.1818C70.1714 98 69.7661 97.7595 69.4517 97.4602C69.1373 97.161 68.9025 96.8333 68.7472 96.4773L70.2074 95.875C70.3097 96.0417 70.446 96.2178 70.6165 96.4034C70.7907 96.5928 71.0256 96.7538 71.321 96.8864C71.6203 97.0189 72.0047 97.0852 72.4744 97.0852C73.1184 97.0852 73.6506 96.928 74.071 96.6136C74.4915 96.303 74.7017 95.8068 74.7017 95.125V93.4091H74.5938C74.4915 93.5947 74.3438 93.8011 74.1506 94.0284C73.9612 94.2557 73.6998 94.4527 73.3665 94.6193C73.0331 94.786 72.5994 94.8693 72.0653 94.8693C71.3759 94.8693 70.7547 94.7083 70.2017 94.3864C69.6525 94.0606 69.2169 93.5814 68.8949 92.9489C68.5767 92.3125 68.4176 91.5303 68.4176 90.6023C68.4176 89.6742 68.5748 88.8788 68.8892 88.2159C69.2074 87.553 69.643 87.0455 70.196 86.6932C70.7491 86.3371 71.3759 86.1591 72.0767 86.1591C72.6184 86.1591 73.0559 86.25 73.3892 86.4318C73.7225 86.6098 73.982 86.8182 74.1676 87.0568C74.357 87.2955 74.5028 87.5057 74.6051 87.6875H74.7301V86.2727H76.3949V95.1932C76.3949 95.9432 76.2206 96.5587 75.8722 97.0398C75.5237 97.5208 75.0521 97.8769 74.4574 98.108C73.8665 98.339 73.1998 98.4545 72.4574 98.4545ZM72.4403 93.4602C72.929 93.4602 73.3419 93.3466 73.679 93.1193C74.0199 92.8883 74.2775 92.5587 74.4517 92.1307C74.6297 91.6989 74.7188 91.1818 74.7188 90.5795C74.7188 89.9924 74.6316 89.4754 74.4574 89.0284C74.2831 88.5814 74.0275 88.233 73.6903 87.983C73.3532 87.7292 72.9366 87.6023 72.4403 87.6023C71.929 87.6023 71.5028 87.7348 71.1619 88C70.821 88.2614 70.5634 88.6174 70.3892 89.0682C70.2188 89.5189 70.1335 90.0227 70.1335 90.5795C70.1335 91.1515 70.2206 91.6534 70.3949 92.0852C70.5691 92.517 70.8267 92.8542 71.1676 93.0966C71.5123 93.339 71.9366 93.4602 72.4403 93.4602Z" fill="#5D4FC4"/>
</svg>
