<svg width="72" height="90" viewBox="0 0 72 90" fill="none" xmlns="http://www.w3.org/2000/svg">
<rect width="72" height="72" fill="white"/>
<path d="M42.1196 68.25L27.7496 68.25C22.8896 68.25 18.4796 66.36 15.2996 62.88C12.1196 59.43 10.5896 54.87 11.0096 50.04C12.0296 37.74 22.8896 27.75 35.2496 27.75C46.6196 27.75 57.3596 36.87 59.2496 48.06C60.1496 53.4 58.8296 58.44 55.5896 62.28C52.2896 66.12 47.5196 68.25 42.1196 68.25ZM35.2196 32.25C25.1696 32.25 16.3196 40.41 15.4796 50.43C15.1796 54 16.2896 57.33 18.5996 59.85C20.9096 62.37 24.1496 63.75 27.7196 63.75L42.0896 63.75C46.1396 63.75 49.7096 62.19 52.0796 59.4C54.4496 56.61 55.4096 52.83 54.7496 48.81C53.2496 39.69 44.4896 32.25 35.2196 32.25Z" fill="#9990DA"/>
<path d="M31.4102 24.75C26.0402 24.75 21.6602 20.37 21.6602 15C21.6602 9.63 26.0402 5.25 31.4102 5.25C36.7802 5.25 41.1602 9.63 41.1602 15C41.1602 20.37 36.8102 24.75 31.4102 24.75ZM31.4102 9.75C28.5302 9.75 26.1602 12.12 26.1602 15C26.1602 17.88 28.5302 20.25 31.4102 20.25C34.2902 20.25 36.6602 17.88 36.6602 15C36.6602 12.12 34.3202 9.75 31.4102 9.75Z" fill="#9990DA"/>
<path d="M51.9004 28.3501C47.3404 28.3501 43.6504 24.6601 43.6504 20.1001C43.6504 15.5401 47.3404 11.8501 51.9004 11.8501C56.4604 11.8501 60.1504 15.5401 60.1504 20.1001C60.1504 24.6601 56.4604 28.3501 51.9004 28.3501ZM51.9004 16.3501C49.8304 16.3501 48.1504 18.0301 48.1504 20.1001C48.1504 22.1701 49.8304 23.8501 51.9004 23.8501C53.9704 23.8501 55.6504 22.1701 55.6504 20.1001C55.6504 18.0301 53.9704 16.3501 51.9004 16.3501Z" fill="#9990DA"/>
<path d="M63 40.3501C59.28 40.3501 56.25 37.3201 56.25 33.6001C56.25 29.8801 59.28 26.8501 63 26.8501C66.72 26.8501 69.75 29.8801 69.75 33.6001C69.75 37.3201 66.72 40.3501 63 40.3501ZM63 31.3501C61.77 31.3501 60.75 32.3701 60.75 33.6001C60.75 34.8301 61.77 35.8501 63 35.8501C64.23 35.8501 65.25 34.8301 65.25 33.6001C65.25 32.3701 64.23 31.3501 63 31.3501Z" fill="#9990DA"/>
<path d="M11.9102 34.3501C7.35016 34.3501 3.66016 30.6601 3.66016 26.1001C3.66016 21.5401 7.35016 17.8501 11.9102 17.8501C16.4702 17.8501 20.1602 21.5401 20.1602 26.1001C20.1602 30.6601 16.4702 34.3501 11.9102 34.3501ZM11.9102 22.3501C9.84016 22.3501 8.16016 24.0301 8.16016 26.1001C8.16016 28.1701 9.84016 29.8501 11.9102 29.8501C13.9802 29.8501 15.6602 28.1701 15.6602 26.1001C15.6602 24.0301 13.9802 22.3501 11.9102 22.3501Z" fill="#9990DA"/>
<path d="M32.0043 51V40.8182H33.8487V49.4538H38.3331V51H32.0043Z" fill="#5D4FC4"/>
<path d="M20.5568 87V78.2727H21.6136V86.0625H25.6705V87H20.5568ZM29.0966 87.1534C28.6818 87.1534 28.3054 87.0753 27.9673 86.919C27.6293 86.7599 27.3608 86.5312 27.1619 86.233C26.9631 85.9318 26.8636 85.5682 26.8636 85.142C26.8636 84.767 26.9375 84.4631 27.0852 84.2301C27.233 83.9943 27.4304 83.8097 27.6776 83.6761C27.9247 83.5426 28.1974 83.4432 28.4957 83.3778C28.7969 83.3097 29.0994 83.2557 29.4034 83.2159C29.8011 83.1648 30.1236 83.1264 30.3707 83.1009C30.6207 83.0724 30.8026 83.0256 30.9162 82.9602C31.0327 82.8949 31.0909 82.7812 31.0909 82.6193V82.5852C31.0909 82.1648 30.9759 81.8381 30.7457 81.6051C30.5185 81.3722 30.1733 81.2557 29.7102 81.2557C29.2301 81.2557 28.8537 81.3608 28.581 81.571C28.3082 81.7812 28.1165 82.0057 28.0057 82.2443L27.0511 81.9034C27.2216 81.5057 27.4489 81.196 27.733 80.9744C28.0199 80.75 28.3324 80.5937 28.6705 80.5057C29.0114 80.4148 29.3466 80.3693 29.6761 80.3693C29.8864 80.3693 30.1278 80.3949 30.4006 80.446C30.6761 80.4943 30.9418 80.5952 31.1974 80.7486C31.456 80.902 31.6705 81.1335 31.8409 81.4432C32.0114 81.7528 32.0966 82.1676 32.0966 82.6875V87H31.0909V86.1136H31.0398C30.9716 86.2557 30.858 86.4077 30.6989 86.5696C30.5398 86.7315 30.3281 86.8693 30.0639 86.983C29.7997 87.0966 29.4773 87.1534 29.0966 87.1534ZM29.25 86.25C29.6477 86.25 29.983 86.1719 30.2557 86.0156C30.5313 85.8594 30.7386 85.6577 30.8778 85.4105C31.0199 85.1634 31.0909 84.9034 31.0909 84.6307V83.7102C31.0483 83.7614 30.9545 83.8082 30.8097 83.8509C30.6676 83.8906 30.5028 83.9261 30.3153 83.9574C30.1307 83.9858 29.9503 84.0114 29.7741 84.0341C29.6009 84.054 29.4602 84.071 29.3523 84.0852C29.0909 84.1193 28.8466 84.1747 28.6193 84.2514C28.3949 84.3253 28.2131 84.4375 28.0739 84.5881C27.9375 84.7358 27.8693 84.9375 27.8693 85.1932C27.8693 85.5426 27.9986 85.8068 28.2571 85.9858C28.5185 86.1619 28.8494 86.25 29.25 86.25ZM33.9322 87V80.4545H34.9038V81.4432H34.9719C35.0913 81.1193 35.3072 80.8565 35.6197 80.6548C35.9322 80.4531 36.2844 80.3523 36.6765 80.3523C36.7504 80.3523 36.8427 80.3537 36.9535 80.3565C37.0643 80.3594 37.1481 80.3636 37.2049 80.3693V81.392C37.1708 81.3835 37.0927 81.3707 36.9705 81.3537C36.8512 81.3338 36.7248 81.3239 36.5913 81.3239C36.2731 81.3239 35.989 81.3906 35.739 81.5241C35.4918 81.6548 35.2958 81.8366 35.1509 82.0696C35.0089 82.2997 34.9379 82.5625 34.9379 82.858V87H33.9322ZM40.8398 89.5909C40.354 89.5909 39.9364 89.5284 39.587 89.4034C39.2376 89.2812 38.9464 89.1193 38.7134 88.9176C38.4833 88.7188 38.3001 88.5057 38.1637 88.2784L38.9648 87.7159C39.0558 87.8352 39.1708 87.9716 39.31 88.125C39.4492 88.2812 39.6396 88.4162 39.881 88.5298C40.1254 88.6463 40.445 88.7045 40.8398 88.7045C41.3683 88.7045 41.8043 88.5767 42.1481 88.321C42.4918 88.0653 42.6637 87.6648 42.6637 87.1193V85.7898H42.5785C42.5046 85.9091 42.3995 86.0568 42.2631 86.233C42.1296 86.4062 41.9364 86.5611 41.6836 86.6974C41.4336 86.831 41.0955 86.8977 40.6694 86.8977C40.141 86.8977 39.6665 86.7727 39.2461 86.5227C38.8285 86.2727 38.4975 85.9091 38.2532 85.4318C38.0117 84.9545 37.891 84.375 37.891 83.6932C37.891 83.0227 38.0089 82.4389 38.2447 81.9418C38.4805 81.4418 38.8086 81.0554 39.229 80.7827C39.6495 80.5071 40.1353 80.3693 40.6864 80.3693C41.1126 80.3693 41.4506 80.4403 41.7006 80.5824C41.9535 80.7216 42.1467 80.8807 42.2802 81.0597C42.4165 81.2358 42.5217 81.3807 42.5955 81.4943H42.6978V80.4545H43.6694V87.1875C43.6694 87.75 43.5415 88.2074 43.2859 88.5597C43.033 88.9148 42.6921 89.1747 42.2631 89.3395C41.837 89.5071 41.3626 89.5909 40.8398 89.5909ZM40.8058 85.9943C41.2092 85.9943 41.5501 85.902 41.8285 85.7173C42.1069 85.5327 42.3185 85.267 42.4634 84.9205C42.6083 84.5739 42.6808 84.1591 42.6808 83.6761C42.6808 83.2045 42.6097 82.7884 42.4677 82.4276C42.3256 82.0668 42.1154 81.7841 41.837 81.5795C41.5586 81.375 41.2148 81.2727 40.8058 81.2727C40.3796 81.2727 40.0245 81.3807 39.7404 81.5966C39.4592 81.8125 39.2475 82.1023 39.1055 82.4659C38.9663 82.8295 38.8967 83.233 38.8967 83.6761C38.8967 84.1307 38.9677 84.5327 39.1097 84.8821C39.2546 85.2287 39.4677 85.5014 39.7489 85.7003C40.033 85.8963 40.3853 85.9943 40.8058 85.9943ZM48.2546 87.1364C47.6239 87.1364 47.0799 86.9972 46.6225 86.7188C46.168 86.4375 45.8171 86.0455 45.57 85.5426C45.3256 85.0369 45.2035 84.4489 45.2035 83.7784C45.2035 83.108 45.3256 82.517 45.57 82.0057C45.8171 81.4915 46.1609 81.0909 46.6012 80.804C47.0444 80.5142 47.5614 80.3693 48.1523 80.3693C48.4933 80.3693 48.8299 80.4261 49.1623 80.5398C49.4947 80.6534 49.7972 80.8381 50.07 81.0938C50.3427 81.3466 50.56 81.6818 50.7219 82.0994C50.8839 82.517 50.9648 83.0312 50.9648 83.642V84.0682H45.9194V83.1989H49.9421C49.9421 82.8295 49.8683 82.5 49.7205 82.2102C49.5756 81.9205 49.3683 81.6918 49.0984 81.5241C48.8313 81.3565 48.516 81.2727 48.1523 81.2727C47.7518 81.2727 47.4052 81.3722 47.1126 81.571C46.8228 81.767 46.5998 82.0227 46.4435 82.3381C46.2873 82.6534 46.2092 82.9915 46.2092 83.3523V83.9318C46.2092 84.4261 46.2944 84.8452 46.4648 85.1889C46.6381 85.5298 46.8782 85.7898 47.185 85.9688C47.4918 86.1449 47.8484 86.233 48.2546 86.233C48.5188 86.233 48.7575 86.196 48.9705 86.1222C49.1864 86.0455 49.3725 85.9318 49.5288 85.7812C49.685 85.6278 49.8058 85.4375 49.891 85.2102L50.8626 85.483C50.7603 85.8125 50.5884 86.1023 50.3469 86.3523C50.1055 86.5994 49.8072 86.7926 49.4521 86.9318C49.0969 87.0682 48.6978 87.1364 48.2546 87.1364Z" fill="#0C0C0C"/>
</svg>
