<svg width="64" height="82" viewBox="0 0 64 82" fill="none" xmlns="http://www.w3.org/2000/svg">
<rect width="64" height="64" fill="white"/>
<path d="M37.4396 60.6665L24.6662 60.6665C20.3462 60.6665 16.4262 58.9865 13.5996 55.8932C10.7729 52.8265 9.4129 48.7732 9.78623 44.4798C10.6929 33.5465 20.3462 24.6665 31.3329 24.6665C41.4396 24.6665 50.9862 32.7732 52.6662 42.7198C53.4662 47.4665 52.2929 51.9465 49.4129 55.3598C46.4796 58.7732 42.2396 60.6665 37.4396 60.6665ZM31.3062 28.6665C22.3729 28.6665 14.5062 35.9198 13.7596 44.8265C13.4929 47.9998 14.4796 50.9598 16.5329 53.1998C18.5862 55.4398 21.4662 56.6665 24.6396 56.6665L37.4129 56.6665C41.0129 56.6665 44.1862 55.2798 46.2929 52.7998C48.3996 50.3198 49.2529 46.9598 48.6662 43.3865C47.3329 35.2798 39.5462 28.6665 31.3062 28.6665Z" fill="#9990DA"/>
<path d="M27.9196 21.9998C23.1463 21.9998 19.2529 18.1065 19.2529 13.3332C19.2529 8.55984 23.1463 4.6665 27.9196 4.6665C32.6929 4.6665 36.5863 8.55984 36.5863 13.3332C36.5863 18.1065 32.7196 21.9998 27.9196 21.9998ZM27.9196 8.6665C25.3596 8.6665 23.2529 10.7732 23.2529 13.3332C23.2529 15.8932 25.3596 17.9998 27.9196 17.9998C30.4796 17.9998 32.5863 15.8932 32.5863 13.3332C32.5863 10.7732 30.5063 8.6665 27.9196 8.6665Z" fill="#9990DA"/>
<path d="M46.1331 25.1999C42.0798 25.1999 38.7998 21.9199 38.7998 17.8665C38.7998 13.8132 42.0798 10.5332 46.1331 10.5332C50.1865 10.5332 53.4665 13.8132 53.4665 17.8665C53.4665 21.9199 50.1865 25.1999 46.1331 25.1999ZM46.1331 14.5332C44.2931 14.5332 42.7998 16.0265 42.7998 17.8665C42.7998 19.7065 44.2931 21.1999 46.1331 21.1999C47.9731 21.1999 49.4665 19.7065 49.4665 17.8665C49.4665 16.0265 47.9731 14.5332 46.1331 14.5332Z" fill="#9990DA"/>
<path d="M56 35.8667C52.6933 35.8667 50 33.1734 50 29.8667C50 26.56 52.6933 23.8667 56 23.8667C59.3067 23.8667 62 26.56 62 29.8667C62 33.1734 59.3067 35.8667 56 35.8667ZM56 27.8667C54.9067 27.8667 54 28.7734 54 29.8667C54 30.96 54.9067 31.8667 56 31.8667C57.0933 31.8667 58 30.96 58 29.8667C58 28.7734 57.0933 27.8667 56 27.8667Z" fill="#9990DA"/>
<path d="M10.5863 30.5334C6.53293 30.5334 3.25293 27.2534 3.25293 23.2C3.25293 19.1467 6.53293 15.8667 10.5863 15.8667C14.6396 15.8667 17.9196 19.1467 17.9196 23.2C17.9196 27.2534 14.6396 30.5334 10.5863 30.5334ZM10.5863 19.8667C8.74626 19.8667 7.25293 21.36 7.25293 23.2C7.25293 25.04 8.74626 26.5334 10.5863 26.5334C12.4263 26.5334 13.9196 25.04 13.9196 23.2C13.9196 21.36 12.4263 19.8667 10.5863 19.8667Z" fill="#9990DA"/>
<path d="M26.6605 37.8182H28.9176L31.9403 45.196H32.0597L35.0824 37.8182H37.3395V48H35.5696V41.005H35.4751L32.6612 47.9702H31.3388L28.5249 40.9901H28.4304V48H26.6605V37.8182Z" fill="#5D4FC4"/>
<path d="M10.0568 70.2727H11.3182L14.2841 77.517H14.3864L17.3523 70.2727H18.6136V79H17.625V72.3693H17.5398L14.8125 79H13.858L11.1307 72.3693H11.0455V79H10.0568V70.2727ZM23.3406 79.1364C22.7099 79.1364 22.1658 78.9972 21.7085 78.7188C21.2539 78.4375 20.9031 78.0455 20.6559 77.5426C20.4116 77.0369 20.2894 76.4489 20.2894 75.7784C20.2894 75.108 20.4116 74.517 20.6559 74.0057C20.9031 73.4915 21.2468 73.0909 21.6871 72.804C22.1303 72.5142 22.6474 72.3693 23.2383 72.3693C23.5792 72.3693 23.9158 72.4261 24.2482 72.5398C24.5806 72.6534 24.8832 72.8381 25.1559 73.0938C25.4286 73.3466 25.646 73.6818 25.8079 74.0994C25.9698 74.517 26.0508 75.0312 26.0508 75.642V76.0682H21.0053V75.1989H25.0281C25.0281 74.8295 24.9542 74.5 24.8065 74.2102C24.6616 73.9205 24.4542 73.6918 24.1843 73.5241C23.9173 73.3565 23.6019 73.2727 23.2383 73.2727C22.8377 73.2727 22.4911 73.3722 22.1985 73.571C21.9087 73.767 21.6857 74.0227 21.5295 74.3381C21.3732 74.6534 21.2951 74.9915 21.2951 75.3523V75.9318C21.2951 76.4261 21.3803 76.8452 21.5508 77.1889C21.7241 77.5298 21.9641 77.7898 22.271 77.9688C22.5778 78.1449 22.9343 78.233 23.3406 78.233C23.6048 78.233 23.8434 78.196 24.0565 78.1222C24.2724 78.0455 24.4585 77.9318 24.6147 77.7812C24.771 77.6278 24.8917 77.4375 24.9769 77.2102L25.9485 77.483C25.8462 77.8125 25.6744 78.1023 25.4329 78.3523C25.1914 78.5994 24.8931 78.7926 24.538 78.9318C24.1829 79.0682 23.7837 79.1364 23.3406 79.1364ZM30.0522 79.1364C29.5067 79.1364 29.0252 78.9986 28.6076 78.723C28.19 78.4446 27.8633 78.0526 27.6275 77.5469C27.3917 77.0384 27.2738 76.4375 27.2738 75.7443C27.2738 75.0568 27.3917 74.4602 27.6275 73.9545C27.8633 73.4489 28.1914 73.0582 28.6119 72.7827C29.0323 72.5071 29.5181 72.3693 30.0692 72.3693C30.4954 72.3693 30.832 72.4403 31.0792 72.5824C31.3292 72.7216 31.5195 72.8807 31.6502 73.0597C31.7837 73.2358 31.8874 73.3807 31.9613 73.4943H32.0465V70.2727H33.0522V79H32.0806V77.9943H31.9613C31.8874 78.1136 31.7823 78.2642 31.646 78.446C31.5096 78.625 31.315 78.7855 31.0621 78.9276C30.8093 79.0668 30.4727 79.1364 30.0522 79.1364ZM30.1886 78.233C30.592 78.233 30.9329 78.1278 31.2113 77.9176C31.4897 77.7045 31.7013 77.4105 31.8462 77.0355C31.9911 76.6577 32.0636 76.2216 32.0636 75.7273C32.0636 75.2386 31.9925 74.8111 31.8505 74.4446C31.7085 74.0753 31.4982 73.7884 31.2198 73.5838C30.9414 73.3764 30.5977 73.2727 30.1886 73.2727C29.7624 73.2727 29.4073 73.3821 29.1232 73.6009C28.842 73.8168 28.6303 74.1108 28.4883 74.483C28.3491 74.8523 28.2795 75.267 28.2795 75.7273C28.2795 76.1932 28.3505 76.6165 28.4925 76.9972C28.6374 77.375 28.8505 77.6761 29.1317 77.9006C29.4158 78.1222 29.7681 78.233 30.1886 78.233ZM35.0337 79V72.4545H36.0394V79H35.0337ZM35.5451 71.3636C35.3491 71.3636 35.18 71.2969 35.038 71.1634C34.8988 71.0298 34.8292 70.8693 34.8292 70.6818C34.8292 70.4943 34.8988 70.3338 35.038 70.2003C35.18 70.0668 35.3491 70 35.5451 70C35.7411 70 35.9087 70.0668 36.0479 70.2003C36.19 70.3338 36.261 70.4943 36.261 70.6818C36.261 70.8693 36.19 71.0298 36.0479 71.1634C35.9087 71.2969 35.7411 71.3636 35.5451 71.3636ZM42.0064 76.3239V72.4545H43.0121V79H42.0064V77.892H41.9382C41.7848 78.2244 41.5462 78.5071 41.2223 78.7401C40.8984 78.9702 40.4893 79.0852 39.995 79.0852C39.5859 79.0852 39.2223 78.9957 38.9041 78.8168C38.5859 78.6349 38.3359 78.3622 38.1541 77.9986C37.9723 77.6321 37.8814 77.1705 37.8814 76.6136V72.4545H38.8871V76.5455C38.8871 77.0227 39.0206 77.4034 39.2876 77.6875C39.5575 77.9716 39.9013 78.1136 40.3189 78.1136C40.5689 78.1136 40.8232 78.0497 41.0817 77.9219C41.343 77.794 41.5618 77.598 41.7379 77.3338C41.9169 77.0696 42.0064 76.733 42.0064 76.3239ZM44.854 79V72.4545H45.8256V73.4773H45.9109C46.0472 73.1278 46.2674 72.8565 46.5714 72.6634C46.8754 72.4673 47.2404 72.3693 47.6665 72.3693C48.0984 72.3693 48.4577 72.4673 48.7447 72.6634C49.0344 72.8565 49.2603 73.1278 49.4222 73.4773H49.4904C49.658 73.1392 49.9094 72.8707 50.2447 72.6719C50.5799 72.4702 50.9819 72.3693 51.4506 72.3693C52.0359 72.3693 52.5146 72.5526 52.8867 72.919C53.2589 73.2827 53.445 73.8494 53.445 74.6193V79H52.4393V74.6193C52.4393 74.1364 52.3072 73.7912 52.043 73.5838C51.7788 73.3764 51.4677 73.2727 51.1097 73.2727C50.6495 73.2727 50.293 73.4119 50.0401 73.6903C49.7873 73.9659 49.6609 74.3153 49.6609 74.7386V79H48.6381V74.517C48.6381 74.1449 48.5174 73.8452 48.2759 73.6179C48.0344 73.3878 47.7234 73.2727 47.3427 73.2727C47.0813 73.2727 46.837 73.3423 46.6097 73.4815C46.3853 73.6207 46.2035 73.8139 46.0643 74.0611C45.9279 74.3054 45.8597 74.5881 45.8597 74.9091V79H44.854Z" fill="#0C0C0C"/>
</svg>
