<svg xmlns="http://www.w3.org/2000/svg" width="24" height="24" viewBox="0 0 24 24" fill="none" stroke="currentColor" stroke-width="2" stroke-linecap="round" stroke-linejoin="round">
  <path d="M8.56 2.9A7 7 0 0 0 6 8v1"></path>
  <path d="M12 18v4"></path>
  <path d="M8 18c-1.5 0-3-1.5-3-3"></path>
  <path d="M16 18c1.5 0 3-1.5 3-3"></path>
  <path d="M3 7c0-1.7 1.3-3 3-3 1 0 1.9.5 2.4 1.2"></path>
  <path d="M15.4 5.2c.5-.7 1.4-1.2 2.4-1.2 1.7 0 3 1.3 3 3"></path>
  <path d="M19 7v1"></path>
  <path d="M8 12v6"></path>
  <path d="M16 12v6"></path>
  <circle cx="12" cy="9" r="5"></circle>
</svg> 