<svg width="40" height="40" viewBox="0 0 40 40" fill="none" xmlns="http://www.w3.org/2000/svg">
<path fill-rule="evenodd" clip-rule="evenodd" d="M28.895 39.9782C29.0566 39.966 29.2182 39.9564 29.379 39.9407C30.283 39.8482 31.1126 39.5263 31.8486 38.9462C33.1183 37.943 33.9303 36.6092 34.2535 34.9317C34.3714 34.3042 34.4109 33.6622 34.3711 33.0231C34.3278 32.2741 34.1938 31.5346 33.9727 30.8239C33.6215 29.6829 33.0927 28.6474 32.423 27.6931C31.919 26.9772 31.3482 26.3203 30.7198 25.733C30.1351 25.1768 29.5918 24.571 29.095 23.9211C28.4646 23.1055 27.895 22.241 27.3309 21.3704C26.8333 20.601 26.3437 19.8264 25.8157 19.0832C25.4233 18.5182 24.9942 17.9847 24.5317 17.4868C23.9477 16.8701 23.3029 16.3484 22.5429 16.0091C21.9778 15.7557 21.3745 15.619 20.7636 15.6061C20.0693 15.586 19.3755 15.6661 18.7004 15.8442C17.681 16.1163 16.746 16.6783 15.9907 17.4728C15.4611 18.0224 15.0131 18.6453 14.5971 19.296C14.1547 19.9869 13.7491 20.7031 13.3307 21.4106C12.8587 22.207 12.3706 22.9912 11.8266 23.7327C11.2854 24.4708 10.6851 25.155 10.033 25.7775C9.24302 26.5257 8.54136 27.3781 7.94416 28.3151C7.43172 29.1163 7.02306 29.9908 6.72973 30.9138C6.50107 31.633 6.36536 32.3834 6.32653 33.1435C6.27053 34.3054 6.45453 35.4168 6.93854 36.4618C7.38655 37.4301 8.03456 38.2091 8.84738 38.8258C9.44579 39.2803 10.0914 39.6258 10.8018 39.8177C11.0533 39.887 11.3092 39.9357 11.5674 39.9634C11.6034 39.9669 11.6378 39.9738 11.673 39.9808C11.7066 40.0009 11.7434 39.9852 11.7794 39.9895C11.809 39.9948 11.8394 39.9808 11.8674 40H12.5299C12.5562 39.9799 12.5859 39.9939 12.6139 39.9904H12.7539C13.3187 39.9703 13.8667 39.8421 14.4139 39.7034C15.3395 39.4679 16.2475 39.1582 17.1691 38.9026C17.9133 38.6909 18.6697 38.5341 19.4332 38.4333C19.9624 38.3722 20.4951 38.3541 21.0268 38.3792C21.4508 38.3949 21.8732 38.4664 22.2908 38.5511C23.1149 38.7203 23.9221 38.961 24.7301 39.2018C25.5845 39.4583 26.4389 39.7121 27.3141 39.8683C27.6702 39.9311 28.0262 39.9852 28.3886 39.9817C28.463 39.9799 28.5366 39.9921 28.6118 39.9904C28.7078 39.9843 28.8014 40.0026 28.8958 39.9791M12.5674 0.0174467C11.377 0.173594 10.4666 0.833951 9.77139 1.87465C9.29538 2.58821 8.99538 3.38902 8.80977 4.24478C8.65406 4.97938 8.58816 5.73322 8.61377 6.48668C8.65301 7.8626 8.95835 9.21397 9.50979 10.4523C9.8847 11.3179 10.3953 12.1055 11.0186 12.7797C11.581 13.3799 12.217 13.8596 12.9595 14.1589C13.4811 14.3682 14.0171 14.4729 14.5723 14.4363C15.5339 14.3761 16.3507 13.9591 17.0363 13.2316C17.622 12.6105 18.0204 11.8585 18.2964 11.0272C18.4863 10.4473 18.6125 9.84501 18.6724 9.23278C18.7163 8.81413 18.7324 8.39256 18.7204 7.97139C18.6924 6.97867 18.5284 6.01213 18.2324 5.07349C17.9275 4.07819 17.4648 3.149 16.8651 2.32826C16.3531 1.63563 15.7555 1.04942 15.0387 0.61674C14.5175 0.296931 13.9431 0.0935004 13.3491 0.0183189C13.3307 0.00697859 13.3107 0.0122127 13.2923 0.0104681H13.2355C13.2075 0.00697874 13.1787 0.020936 13.1539 0H12.7635C12.7387 0.0218083 12.7099 0.00697874 12.6827 0.0104681H12.6251C12.6067 0.0104681 12.5867 0.00610632 12.5674 0.0174467ZM39.964 15.3522C39.9456 14.9562 39.88 14.5671 39.7848 14.1841C39.5992 13.44 39.2968 12.7622 38.8248 12.1821C38.3174 11.5424 37.6278 11.1068 36.8663 10.9452C36.2327 10.8091 35.6071 10.8667 34.9927 11.0743C34.2855 11.3116 33.6607 11.7163 33.1047 12.2432C32.2422 13.0588 31.623 14.0629 31.195 15.2109C30.8576 16.1019 30.6769 17.0542 30.6622 18.0181C30.649 18.6125 30.7099 19.2062 30.843 19.7828C31.0246 20.5548 31.3302 21.257 31.8166 21.8589C32.3528 22.539 33.0937 22.9884 33.9063 23.1264C34.5191 23.2346 35.1215 23.1613 35.7103 22.9537C36.5023 22.6737 37.1823 22.1922 37.7808 21.5685C38.3575 20.9639 38.8339 20.255 39.1888 19.4731C39.5446 18.7093 39.7865 17.8887 39.9056 17.0419C39.9256 16.891 39.9424 16.7401 39.9616 16.59C39.976 16.5211 39.9696 16.4505 39.9856 16.3824C39.9928 16.3536 39.9888 16.3266 39.9896 16.2969C39.9944 16.2612 39.9792 16.2219 40 16.1862V15.6331C39.968 15.5825 39.984 15.5267 39.9808 15.4726C39.9776 15.4325 39.9872 15.3888 39.964 15.3522ZM31.6014 6.49191C31.5974 5.39451 31.4542 4.40616 31.1174 3.45357C30.8638 2.73389 30.515 2.07615 30.0294 1.51001C29.507 0.897632 28.8862 0.45972 28.1374 0.252977C27.3885 0.0453613 26.6525 0.10468 25.9293 0.389933C25.2917 0.64291 24.7357 1.03982 24.2413 1.54141C23.4533 2.34047 22.8893 3.30615 22.4868 4.38871C22.2308 5.07611 22.0548 5.78794 21.9548 6.52157C21.898 6.9368 21.8652 7.35639 21.8572 7.77773C21.8468 8.30838 21.8811 8.83894 21.9596 9.36276C22.1268 10.4584 22.4676 11.479 23.0757 12.381C23.4444 12.941 23.9229 13.4044 24.4765 13.7375C25.0923 14.1061 25.7941 14.2687 26.4941 14.2051C27.1389 14.1519 27.7342 13.9216 28.2886 13.563C29.0118 13.0963 29.5974 12.4665 30.0854 11.725C30.6543 10.8486 31.0703 9.86533 31.3126 8.82453C31.4499 8.25305 31.5388 7.66905 31.5782 7.07986C31.5958 6.88449 31.6036 6.68821 31.6014 6.49191ZM0.000797272 15.996V16.1233C0.044796 17.1815 0.304806 18.1768 0.723213 19.1259C1.04908 19.8677 1.47816 20.5501 1.99524 21.1489C2.66325 21.9209 3.43847 22.5237 4.36089 22.8848C4.90694 23.1063 5.48863 23.2042 6.07052 23.1727C6.91516 23.1331 7.71854 22.7634 8.33377 22.1311C8.86018 21.5972 9.20658 20.9412 9.42579 20.2033C9.61897 19.5448 9.7056 18.8546 9.68179 18.1637C9.63859 16.6354 9.19618 15.2467 8.42817 13.9757C8.16975 13.5464 7.87165 13.1471 7.53855 12.7841C6.85294 12.0391 6.06892 11.4668 5.1401 11.1414C4.61835 10.9539 4.06805 10.8793 3.52007 10.9216C2.69598 10.9806 1.91729 11.3543 1.32083 11.9771C0.764015 12.5503 0.41201 13.2577 0.200005 14.0533C0.0824013 14.4921 0.0135994 14.9413 0 15.3993V15.5275C0.00421906 15.6837 0.00501633 15.8399 0.000797272 15.996Z" fill="#EAE8F7"/>
</svg>
