<svg width="80" height="81" viewBox="0 0 80 81" fill="none" xmlns="http://www.w3.org/2000/svg">
<path d="M13.3337 17.1668H20.0003V27.1668H53.3337V17.1668H60.0003V33.8335H66.667V17.1668C66.667 13.5002 63.667 10.5002 60.0003 10.5002H46.067C44.667 6.6335 41.0003 3.8335 36.667 3.8335C32.3337 3.8335 28.667 6.6335 27.267 10.5002H13.3337C9.66699 10.5002 6.66699 13.5002 6.66699 17.1668V63.8335C6.66699 67.5002 9.66699 70.5002 13.3337 70.5002H30.0003V63.8335H13.3337V17.1668ZM36.667 10.5002C38.5003 10.5002 40.0003 12.0002 40.0003 13.8335C40.0003 15.6668 38.5003 17.1668 36.667 17.1668C34.8337 17.1668 33.3337 15.6668 33.3337 13.8335C33.3337 12.0002 34.8337 10.5002 36.667 10.5002Z" fill="#41349D"/>
<path d="M64.3337 63.5002C65.667 61.1668 66.667 58.5002 66.667 55.5002C66.667 47.1668 60.0003 40.5002 51.667 40.5002C43.3337 40.5002 36.667 47.1668 36.667 55.5002C36.667 63.8335 43.3337 70.5002 51.667 70.5002C54.667 70.5002 57.3337 69.5002 59.667 68.1668L68.667 77.1668L73.3337 72.5002L64.3337 63.5002ZM51.667 63.8335C47.0003 63.8335 43.3337 60.1668 43.3337 55.5002C43.3337 50.8335 47.0003 47.1668 51.667 47.1668C56.3337 47.1668 60.0003 50.8335 60.0003 55.5002C60.0003 60.1668 56.3337 63.8335 51.667 63.8335Z" fill="#41349D"/>
</svg>
