<svg width="48" height="66" viewBox="0 0 48 66" fill="none" xmlns="http://www.w3.org/2000/svg">
<rect width="48" height="48" fill="white"/>
<path d="M28.0804 45.5L18.5004 45.5C15.2604 45.5 12.3204 44.24 10.2004 41.92C8.08041 39.62 7.06041 36.58 7.34041 33.36C8.02041 25.16 15.2604 18.5 23.5004 18.5C31.0804 18.5 38.2404 24.58 39.5004 32.04C40.1004 35.6 39.2204 38.96 37.0604 41.52C34.8604 44.08 31.6804 45.5 28.0804 45.5ZM23.4804 21.5C16.7804 21.5 10.8804 26.94 10.3204 33.62C10.1204 36 10.8604 38.22 12.4004 39.9C13.9404 41.58 16.1004 42.5 18.4804 42.5L28.0604 42.5C30.7604 42.5 33.1404 41.46 34.7204 39.6C36.3004 37.74 36.9404 35.22 36.5004 32.54C35.5004 26.46 29.6604 21.5 23.4804 21.5Z" fill="#41349D"/>
<path d="M20.9404 16.5C17.3604 16.5 14.4404 13.58 14.4404 10C14.4404 6.42 17.3604 3.5 20.9404 3.5C24.5204 3.5 27.4404 6.42 27.4404 10C27.4404 13.58 24.5404 16.5 20.9404 16.5ZM20.9404 6.5C19.0204 6.5 17.4404 8.08 17.4404 10C17.4404 11.92 19.0204 13.5 20.9404 13.5C22.8604 13.5 24.4404 11.92 24.4404 10C24.4404 8.08 22.8804 6.5 20.9404 6.5Z" fill="#41349D"/>
<path d="M34.5996 18.8999C31.5596 18.8999 29.0996 16.4399 29.0996 13.3999C29.0996 10.3599 31.5596 7.8999 34.5996 7.8999C37.6396 7.8999 40.0996 10.3599 40.0996 13.3999C40.0996 16.4399 37.6396 18.8999 34.5996 18.8999ZM34.5996 10.8999C33.2196 10.8999 32.0996 12.0199 32.0996 13.3999C32.0996 14.7799 33.2196 15.8999 34.5996 15.8999C35.9796 15.8999 37.0996 14.7799 37.0996 13.3999C37.0996 12.0199 35.9796 10.8999 34.5996 10.8999Z" fill="#41349D"/>
<path d="M42 26.8999C39.52 26.8999 37.5 24.8799 37.5 22.3999C37.5 19.9199 39.52 17.8999 42 17.8999C44.48 17.8999 46.5 19.9199 46.5 22.3999C46.5 24.8799 44.48 26.8999 42 26.8999ZM42 20.8999C41.18 20.8999 40.5 21.5799 40.5 22.3999C40.5 23.2199 41.18 23.8999 42 23.8999C42.82 23.8999 43.5 23.2199 43.5 22.3999C43.5 21.5799 42.82 20.8999 42 20.8999Z" fill="#41349D"/>
<path d="M7.94043 22.8999C4.90043 22.8999 2.44043 20.4399 2.44043 17.3999C2.44043 14.3599 4.90043 11.8999 7.94043 11.8999C10.9804 11.8999 13.4404 14.3599 13.4404 17.3999C13.4404 20.4399 10.9804 22.8999 7.94043 22.8999ZM7.94043 14.8999C6.56043 14.8999 5.44043 16.0199 5.44043 17.3999C5.44043 18.7799 6.56043 19.8999 7.94043 19.8999C9.32043 19.8999 10.4404 18.7799 10.4404 17.3999C10.4404 16.0199 9.32043 14.8999 7.94043 14.8999Z" fill="#41349D"/>
<path d="M24.5376 30.6172C24.4912 30.183 24.2957 29.8449 23.951 29.603C23.6096 29.361 23.1655 29.2401 22.6186 29.2401C22.2341 29.2401 21.9044 29.2981 21.6293 29.4141C21.3542 29.5301 21.1437 29.6875 20.9979 29.8864C20.852 30.0852 20.7775 30.3123 20.7741 30.5675C20.7741 30.7796 20.8222 30.9635 20.9183 31.1193C21.0178 31.2751 21.152 31.4077 21.321 31.517C21.4901 31.6231 21.6773 31.7126 21.8828 31.7855C22.0883 31.8584 22.2955 31.9197 22.5043 31.9695L23.4588 32.2081C23.8433 32.2976 24.2128 32.4186 24.5675 32.571C24.9254 32.7235 25.2453 32.9157 25.527 33.1477C25.812 33.3797 26.0374 33.6598 26.2031 33.9879C26.3688 34.3161 26.4517 34.7005 26.4517 35.1413C26.4517 35.7379 26.2992 36.2633 25.9943 36.7173C25.6894 37.1681 25.2486 37.5211 24.6719 37.7763C24.0985 38.0282 23.4041 38.1541 22.5888 38.1541C21.7966 38.1541 21.1089 38.0315 20.5256 37.7862C19.9455 37.541 19.4915 37.183 19.1634 36.7124C18.8385 36.2417 18.6629 35.6683 18.6364 34.9922H20.451C20.4775 35.3468 20.5869 35.6418 20.7791 35.8771C20.9714 36.1125 21.2216 36.2881 21.5298 36.4041C21.8414 36.5201 22.1894 36.5781 22.5739 36.5781C22.9749 36.5781 23.3262 36.5185 23.6278 36.3991C23.9328 36.2765 24.1714 36.1075 24.3438 35.892C24.5161 35.6733 24.6039 35.4181 24.6072 35.1264C24.6039 34.8613 24.526 34.6425 24.3736 34.4702C24.2211 34.2945 24.0073 34.1487 23.7322 34.0327C23.4605 33.9134 23.1423 33.8073 22.7777 33.7145L21.6193 33.4162C20.7808 33.2008 20.1179 32.8743 19.6307 32.4368C19.1468 31.996 18.9048 31.411 18.9048 30.6818C18.9048 30.0819 19.0672 29.5566 19.392 29.1058C19.7202 28.6551 20.166 28.3054 20.7294 28.0568C21.2929 27.8049 21.9309 27.679 22.6435 27.679C23.366 27.679 23.9991 27.8049 24.5426 28.0568C25.0895 28.3054 25.5187 28.6518 25.8303 29.0959C26.1418 29.5367 26.3026 30.0438 26.3125 30.6172H24.5376Z" fill="#41349D"/>
<path d="M14.3295 56.4545C14.2784 56.0227 14.071 55.6875 13.7074 55.4489C13.3438 55.2102 12.8977 55.0909 12.3693 55.0909C11.983 55.0909 11.6449 55.1534 11.3551 55.2784C11.0682 55.4034 10.8438 55.5753 10.6818 55.794C10.5227 56.0128 10.4432 56.2614 10.4432 56.5398C10.4432 56.7727 10.4986 56.973 10.6094 57.1406C10.723 57.3054 10.8679 57.4432 11.044 57.554C11.2202 57.6619 11.4048 57.7514 11.598 57.8224C11.7912 57.8906 11.9688 57.946 12.1307 57.9886L13.017 58.2273C13.2443 58.2869 13.4972 58.3693 13.7756 58.4744C14.0568 58.5795 14.3253 58.723 14.581 58.9048C14.8395 59.0838 15.0526 59.3139 15.2202 59.5952C15.3878 59.8764 15.4716 60.2216 15.4716 60.6307C15.4716 61.1023 15.348 61.5284 15.1009 61.9091C14.8565 62.2898 14.4986 62.5923 14.027 62.8168C13.5582 63.0412 12.9886 63.1534 12.3182 63.1534C11.6932 63.1534 11.152 63.0526 10.6946 62.8509C10.2401 62.6491 9.8821 62.3679 9.62074 62.0071C9.36222 61.6463 9.21591 61.2273 9.18182 60.75H10.2727C10.3011 61.0795 10.4119 61.3523 10.6051 61.5682C10.8011 61.7812 11.0483 61.9403 11.3466 62.0455C11.6477 62.1477 11.9716 62.1989 12.3182 62.1989C12.7216 62.1989 13.0838 62.1335 13.4048 62.0028C13.7259 61.8693 13.9801 61.6847 14.1676 61.4489C14.3551 61.2102 14.4489 60.9318 14.4489 60.6136C14.4489 60.3239 14.3679 60.0881 14.206 59.9062C14.044 59.7244 13.831 59.5767 13.5668 59.4631C13.3026 59.3494 13.017 59.25 12.7102 59.1648L11.6364 58.858C10.9545 58.6619 10.4148 58.3821 10.017 58.0185C9.61932 57.6548 9.42045 57.179 9.42045 56.5909C9.42045 56.1023 9.55256 55.6761 9.81676 55.3125C10.0838 54.946 10.4418 54.6619 10.8906 54.4602C11.3423 54.2557 11.8466 54.1534 12.4034 54.1534C12.9659 54.1534 13.4659 54.2543 13.9034 54.456C14.3409 54.6548 14.6875 54.9276 14.9432 55.2741C15.2017 55.6207 15.3381 56.0142 15.3523 56.4545H14.3295ZM17.0728 63V56.4545H18.0444V57.4773H18.1296C18.266 57.1278 18.4862 56.8565 18.7901 56.6634C19.0941 56.4673 19.4592 56.3693 19.8853 56.3693C20.3171 56.3693 20.6765 56.4673 20.9634 56.6634C21.2532 56.8565 21.479 57.1278 21.641 57.4773H21.7092C21.8768 57.1392 22.1282 56.8707 22.4634 56.6719C22.7987 56.4702 23.2006 56.3693 23.6694 56.3693C24.2546 56.3693 24.7333 56.5526 25.1055 56.919C25.4776 57.2827 25.6637 57.8494 25.6637 58.6193V63H24.658V58.6193C24.658 58.1364 24.5259 57.7912 24.2617 57.5838C23.9975 57.3764 23.6864 57.2727 23.3285 57.2727C22.8683 57.2727 22.5117 57.4119 22.2589 57.6903C22.006 57.9659 21.8796 58.3153 21.8796 58.7386V63H20.8569V58.517C20.8569 58.1449 20.7362 57.8452 20.4947 57.6179C20.2532 57.3878 19.9421 57.2727 19.5614 57.2727C19.3001 57.2727 19.0558 57.3423 18.8285 57.4815C18.604 57.6207 18.4222 57.8139 18.283 58.0611C18.1467 58.3054 18.0785 58.5881 18.0785 58.9091V63H17.0728ZM29.4286 63.1534C29.0138 63.1534 28.6374 63.0753 28.2994 62.919C27.9613 62.7599 27.6928 62.5312 27.494 62.233C27.2951 61.9318 27.1957 61.5682 27.1957 61.142C27.1957 60.767 27.2695 60.4631 27.4173 60.2301C27.565 59.9943 27.7624 59.8097 28.0096 59.6761C28.2567 59.5426 28.5295 59.4432 28.8278 59.3778C29.1289 59.3097 29.4315 59.2557 29.7354 59.2159C30.1332 59.1648 30.4556 59.1264 30.7028 59.1009C30.9528 59.0724 31.1346 59.0256 31.2482 58.9602C31.3647 58.8949 31.4229 58.7812 31.4229 58.6193V58.5852C31.4229 58.1648 31.3079 57.8381 31.0778 57.6051C30.8505 57.3722 30.5053 57.2557 30.0423 57.2557C29.5621 57.2557 29.1857 57.3608 28.913 57.571C28.6403 57.7812 28.4485 58.0057 28.3377 58.2443L27.3832 57.9034C27.5536 57.5057 27.7809 57.196 28.065 56.9744C28.3519 56.75 28.6644 56.5937 29.0025 56.5057C29.3434 56.4148 29.6786 56.3693 30.0082 56.3693C30.2184 56.3693 30.4599 56.3949 30.7326 56.446C31.0082 56.4943 31.2738 56.5952 31.5295 56.7486C31.788 56.902 32.0025 57.1335 32.1729 57.4432C32.3434 57.7528 32.4286 58.1676 32.4286 58.6875V63H31.4229V62.1136H31.3718C31.3036 62.2557 31.19 62.4077 31.0309 62.5696C30.8718 62.7315 30.6602 62.8693 30.396 62.983C30.1317 63.0966 29.8093 63.1534 29.4286 63.1534ZM29.582 62.25C29.9798 62.25 30.315 62.1719 30.5877 62.0156C30.8633 61.8594 31.0707 61.6577 31.2099 61.4105C31.3519 61.1634 31.4229 60.9034 31.4229 60.6307V59.7102C31.3803 59.7614 31.2866 59.8082 31.1417 59.8509C30.9996 59.8906 30.8349 59.9261 30.6474 59.9574C30.4627 59.9858 30.2823 60.0114 30.1062 60.0341C29.9329 60.054 29.7923 60.071 29.6843 60.0852C29.4229 60.1193 29.1786 60.1747 28.9513 60.2514C28.7269 60.3253 28.5451 60.4375 28.4059 60.5881C28.2695 60.7358 28.2013 60.9375 28.2013 61.1932C28.2013 61.5426 28.3306 61.8068 28.5891 61.9858C28.8505 62.1619 29.1815 62.25 29.582 62.25ZM35.2699 54.2727V63H34.2642V54.2727H35.2699ZM38.1175 54.2727V63H37.1119V54.2727H38.1175Z" fill="#202020"/>
</svg>
