<svg width="80" height="55" viewBox="0 0 80 55" fill="none" xmlns="http://www.w3.org/2000/svg">
<path d="M73.3333 17.5002V10.8335H66.6667V17.5002H60V24.1668H66.6667V30.8335H73.3333V24.1668H80V17.5002H73.3333Z" fill="#41349D"/>
<path d="M26.6667 27.5002C34.0333 27.5002 40 21.5335 40 14.1668C40 6.80016 34.0333 0.833496 26.6667 0.833496C19.3 0.833496 13.3333 6.80016 13.3333 14.1668C13.3333 21.5335 19.3 27.5002 26.6667 27.5002ZM26.6667 7.50016C30.3333 7.50016 33.3333 10.5002 33.3333 14.1668C33.3333 17.8335 30.3333 20.8335 26.6667 20.8335C23 20.8335 20 17.8335 20 14.1668C20 10.5002 23 7.50016 26.6667 7.50016Z" fill="#41349D"/>
<path d="M26.6667 30.8335C17.7667 30.8335 0 35.3002 0 44.1668V54.1668H53.3333V44.1668C53.3333 35.3002 35.5667 30.8335 26.6667 30.8335ZM46.6667 47.5002H6.66667V44.2002C7.33333 41.8002 17.6667 37.5002 26.6667 37.5002C35.6667 37.5002 46 41.8002 46.6667 44.1668V47.5002Z" fill="#41349D"/>
<path d="M41.7 1.00016C44.7667 4.5335 46.6667 9.1335 46.6667 14.1668C46.6667 19.2002 44.7667 23.8002 41.7 27.3335C48.2333 26.5002 53.3333 20.9668 53.3333 14.1668C53.3333 7.36683 48.2333 1.8335 41.7 1.00016Z" fill="#41349D"/>
<path d="M55.1 33.6002C58.0667 36.3668 60 39.8335 60 44.1668V54.1668H66.6667V44.1668C66.6667 39.3335 61.3667 35.8002 55.1 33.6002Z" fill="#41349D"/>
</svg>
